#N canvas 676 0 665 705 10;
#X obj 33 281 sig~;
#N canvas 195 20 803 627 cosine 0;
#X obj 161 241 inlet~;
#X obj 167 361 outlet~;
#X obj 257 298 switch~;
#X obj 265 213 inlet;
#X obj 164 302 osc~;
#X msg 200 195 0;
#X msg 267 248 1;
#X obj 200 171 r stopAll;
#X connect 0 0 4 0;
#X connect 3 0 6 0;
#X connect 4 0 1 0;
#X connect 5 0 2 0;
#X connect 6 0 2 0;
#X connect 7 0 5 0;
#X restore 65 406 pd cosine;
#N canvas 53 102 450 346 sawtooth 0;
#X obj 151 179 phasor~;
#X obj 148 118 inlet~;
#X obj 154 238 outlet~;
#X obj 244 175 switch~;
#X obj 252 90 inlet;
#X msg 207 92 0;
#X msg 261 133 1;
#X obj 208 68 r stopAll;
#X connect 0 0 2 0;
#X connect 1 0 0 0;
#X connect 4 0 6 0;
#X connect 5 0 3 0;
#X connect 6 0 3 0;
#X connect 7 0 5 0;
#X restore 130 378 pd sawtooth;
#N canvas 442 179 450 300 square 0;
#X obj 158 199 expr~ $v1 > 0.5;
#X obj 198 166 phasor~;
#X obj 195 119 inlet~;
#X obj 201 239 outlet~;
#X obj 291 176 switch~;
#X obj 299 91 inlet;
#X msg 229 62 0;
#X msg 297 128 1;
#X obj 230 38 r stopAll;
#X connect 0 0 3 0;
#X connect 1 0 0 0;
#X connect 2 0 1 0;
#X connect 5 0 7 0;
#X connect 6 0 4 0;
#X connect 7 0 4 0;
#X connect 8 0 6 0;
#X restore 260 407 pd square;
#X obj 178 556 *~ 0.5;
#X obj 103 645 dac~;
#X obj 145 218 hradio 15 0 0 4 empty empty Waveform 69 7 0 10 -258049
-262144 -1 0;
#X obj 145 244 t f b;
#X obj 146 281 sel 0 1 2;
#X obj 208 261 s stopAll;
#X obj 510 519 vsl 15 128 0 1 0 0 empty empty empty 0 -9 0 10 -262144
-1 -1 0 1;
#X floatatom 425 63 0 0 0 0 - - -;
#X obj 425 15 r frequency;
#X msg 425 39 set \$1;
#X obj 438 87 s frequency;
#X obj 425 137 s pitch;
#X obj 425 113 ftom;
#X floatatom 409 269 9 0 0 0 - - -, f 9;
#X msg 418 238 set \$1;
#X obj 418 214 r pitch;
#X obj 427 286 s pitch;
#X obj 418 312 mtof;
#X obj 418 336 s frequency;
#X obj 31 242 r frequency;
#X obj 202 466 *~;
#X obj 341 430 tgl 15 0 empty empty empty 17 7 0 10 -262144 -1 -1 0
-2;
#X floatatom 322 253 5 0 0 0 - - -, f 5;
#N canvas 0 0 450 300 (subpatch) 0;
#X array waveArray 100 float 5 black black;
#A 0 0.411245 0.411245 0.411245 0.411245 0.411245 0.411245 0.411245
0.411245 0.411245 0.411245 0.411245 0.411245 0.411245 0.411245 0.411245
0.411245 0.411245 0.411245 0.411245 0.411245 0.411245 0.411245 0.411245
0.411245 0.411245 0.411245 0.411245 0.411245 0.411245 0.411245 0.411245
0.411245 0.411245 0.411245 0.411245 0.411245 0.411245 0.411245 0.411245
0.411245 0.411245 0.411245 0.411245 0.411245 0.411245 0.411245 0.411245
0.411245 0.411245 0.411245 0.411245 0.411245 0.411245 0.411245 0.411245
0.411245 0.411245 0.411245 0.411245 0.411245 0.411245 0.411245 0.411245
0.411245 0.411245 0.411245 0.411245 0.411245 0.411245 0.411245 0.411245
0.411245 0.411245 0.411245 0.411245 0.411245 0.411245 0.411245 0.411245
0.411245 0.411245 0.411245 0.411245 0.411245 0.411245 0.411245 0.411245
0.411245 0.411245 0.411245 0.411245 0.411245 0.411245 0.411245 0.411245
0.411245 0.411245 0.411245 0.411245 0.411245;
#X coords 0 2 99 -2 400 140 1;
#X restore 548 270 graph;
#X obj 250 620 metro 100;
#X obj 249 593 tgl 13 0 empty empty empty 17 7 0 10 -262144 -1 -1 0
1;
#X obj 208 649 tabwrite~ waveArray;
#X obj 109 539 lop~;
#X floatatom 143 518 5 0 0 0 - - -, f 5;
#X msg 37 539 500;
#X msg 86 474 50000;
#X obj 231 500 hip~;
#X floatatom 300 543 5 0 0 0 - - -, f 5;
#X msg 418 523 500;
#X obj 412 439 tgl 15 0 empty empty empty 17 7 0 10 -262144 -1 -1 0
1;
#X obj 412 475 line~;
#X msg 45 498 0;
#X msg 380 511 0;
#X msg 415 553 5000;
#X obj 40 24 import mrpeach;
#X obj 141 153 unpackOSC;
#X obj 140 111 udpreceive 12000;
#X obj 142 185 mrpeach/routeOSC /waveformSelect /drum /lowPass /highPass
/pitch /volume, f 77;
#X text 144 22 Imported library;
#X text 613 186 Different data is send to different adresses here;
#X text 547 570 audio slider;
#X text 208 672 for visualising the currentwaveform;
#X connect 0 0 1 0;
#X connect 0 0 2 0;
#X connect 0 0 3 0;
#X connect 1 0 24 0;
#X connect 2 0 24 0;
#X connect 3 0 24 0;
#X connect 4 0 30 0;
#X connect 4 0 5 1;
#X connect 4 0 5 0;
#X connect 6 0 7 0;
#X connect 7 0 8 0;
#X connect 7 1 9 0;
#X connect 8 0 1 1;
#X connect 8 1 2 1;
#X connect 8 2 3 1;
#X connect 10 0 4 1;
#X connect 11 0 14 0;
#X connect 11 0 16 0;
#X connect 12 0 13 0;
#X connect 13 0 11 0;
#X connect 16 0 15 0;
#X connect 17 0 20 0;
#X connect 17 0 21 0;
#X connect 18 0 17 0;
#X connect 19 0 18 0;
#X connect 21 0 22 0;
#X connect 23 0 0 0;
#X connect 24 0 31 0;
#X connect 24 0 35 0;
#X connect 25 0 24 1;
#X connect 26 0 25 0;
#X connect 28 0 30 0;
#X connect 29 0 28 0;
#X connect 31 0 4 0;
#X connect 32 0 31 1;
#X connect 33 0 32 0;
#X connect 34 0 32 0;
#X connect 35 0 4 0;
#X connect 36 0 35 1;
#X connect 37 0 36 0;
#X connect 38 0 39 0;
#X connect 39 0 4 0;
#X connect 40 0 32 0;
#X connect 41 0 36 0;
#X connect 42 0 36 0;
#X connect 44 0 46 0;
#X connect 45 0 44 0;
#X connect 46 0 6 0;
#X connect 46 1 26 0;
#X connect 46 2 32 0;
#X connect 46 3 36 0;
#X connect 46 4 17 0;
#X connect 46 5 10 0;
#X scroll 1;
