#N canvas -7 0 824 705 10;
#X obj 142 118 mrpeach/slipdec;
#X obj 141 153 mrpeach/unpackOSC;
#X msg 98 25 close;
#X obj 33 281 sig~;
#N canvas 114 41 803 604 cosine 0;
#X obj 161 241 inlet~;
#X obj 167 361 outlet~;
#X obj 257 298 switch~;
#X obj 265 213 inlet;
#X obj 164 302 osc~;
#X msg 200 195 0;
#X msg 267 248 1;
#X obj 200 171 r stopAll;
#X connect 0 0 4 0;
#X connect 3 0 6 0;
#X connect 4 0 1 0;
#X connect 5 0 2 0;
#X connect 6 0 2 0;
#X connect 7 0 5 0;
#X restore 93 408 pd cosine;
#N canvas 53 102 450 346 sawtooth 0;
#X obj 151 179 phasor~;
#X obj 148 118 inlet~;
#X obj 154 238 outlet~;
#X obj 244 175 switch~;
#X obj 252 90 inlet;
#X msg 207 92 0;
#X msg 261 133 1;
#X obj 208 68 r stopAll;
#X connect 0 0 2 0;
#X connect 1 0 0 0;
#X connect 4 0 6 0;
#X connect 5 0 3 0;
#X connect 6 0 3 0;
#X connect 7 0 5 0;
#X restore 174 406 pd sawtooth;
#N canvas 442 179 450 300 square 0;
#X obj 158 199 expr~ $v1 > 0.5;
#X obj 198 166 phasor~;
#X obj 195 119 inlet~;
#X obj 201 239 outlet~;
#X obj 291 176 switch~;
#X obj 299 91 inlet;
#X msg 229 62 0;
#X msg 297 128 1;
#X obj 230 38 r stopAll;
#X connect 0 0 3 0;
#X connect 1 0 0 0;
#X connect 2 0 1 0;
#X connect 5 0 7 0;
#X connect 6 0 4 0;
#X connect 7 0 4 0;
#X connect 8 0 6 0;
#X restore 260 407 pd square;
#X obj 119 652 *~ 0.5;
#X obj 197 729 dac~;
#X obj 145 218 hradio 15 0 0 4 empty empty Waveform 69 7 0 10 -258049
-262144 -1 1;
#X obj 145 244 t f b;
#X obj 146 281 sel 0 1 2;
#X obj 208 261 s stopAll;
#X obj 510 519 vsl 15 128 0 1 0 0 empty empty empty 0 -9 0 10 -262144
-1 -1 2500 1;
#X floatatom 425 63 0 0 0 0 - - -;
#X obj 425 15 r frequency;
#X msg 425 39 set \$1;
#X obj 438 87 s frequency;
#X obj 425 137 s pitch;
#X obj 425 113 ftom;
#X floatatom 561 65 11 0 0 0 - - -, f 11;
#X msg 561 41 set \$1;
#X obj 561 17 r pitch;
#X obj 570 89 s pitch;
#X obj 561 115 mtof;
#X obj 561 139 s frequency;
#X obj 31 242 r frequency;
#X obj 202 466 *~;
#X obj 322 428 tgl 15 0 empty empty empty 17 7 0 10 -262144 -1 -1 1
1;
#X floatatom 322 253 5 0 0 0 - - -, f 5;
#N canvas 0 0 450 300 (subpatch) 0;
#X array waveArray 100 float 5 black black;
#A 0 0.00764373 0.00960777 0.0115718 0.0135358 0.0154999 0.0174639
0.019428 0.021392 0.023356 0.0253201 0.0272841 0.0292482 0.0312122
0.0331763 0.0351403 0.0371043 0.0390684 0.0410324 0.0429964 0.0449605
0.0469245 0.0488886 0.0508526 0.0528166 0.0547807 0.0567447 0.0587088
0.0606728 0.0626369 0.0646009 0.0665649 0.068529 0.070493 0.0724571
0.0744211 0.0763851 0.0783492 0.0803132 0.0822773 0.0842413 0.0862053
0.0881694 0.0901334 0.0920975 0.0940615 0.0960255 0.0979896 0.0999536
0.101918 0.103882 0.105846 0.10781 0.109774 0.111738 0.113702 0.115666
0.11763 0.119594 0.121558 0.123522 0.125486 0.12745 0.129414 0.131378
0.133342 0.135306 0.13727 0.139234 0.141198 0.143162 0.145127 0.147091
0.149055 0.151019 0.152983 0.154947 0.156911 0.158875 0.160839 0.162803
0.164767 0.166731 0.168695 0.170659 0.172623 0.174587 0.176551 0.178515
0.180479 0.182443 0.184407 0.186371 0.188335 0.190299 0.192263 0.194228
0.196192 0.00130523 0.00326927 0.00523331;
#X coords 0 2 99 -2 400 140 1;
#X restore 453 188 graph;
#X obj 245 630 metro 100;
#X obj 197 627 tgl 15 0 empty empty empty 17 7 0 10 -262144 -1 -1 1
1;
#X obj 203 659 tabwrite~ waveArray;
#X obj 142 185 mrpeach/routeOSC /waveformSelect /drum /filter;
#X obj 134 578 lop~;
#X floatatom 77 577 5 0 0 0 - - -, f 5;
#X msg 37 539 500;
#X msg 80 539 50000;
#X obj 249 577 hip~;
#X floatatom 313 577 5 0 0 0 - - -, f 5;
#X msg 375 551 500;
#X msg 415 553 50000;
#X obj 412 439 tgl 15 0 empty empty empty 17 7 0 10 -262144 -1 -1 0
1;
#X obj 412 475 line~;
#X msg 61 505 0;
#X msg 405 521 0;
#X msg 220 28 open 3;
#X obj 143 79 comport 3 9600;
#X connect 0 0 1 0;
#X connect 1 0 34 0;
#X connect 2 0 48 0;
#X connect 3 0 4 0;
#X connect 3 0 5 0;
#X connect 3 0 6 0;
#X connect 4 0 27 0;
#X connect 5 0 27 0;
#X connect 6 0 27 0;
#X connect 7 0 33 0;
#X connect 7 0 8 1;
#X connect 7 0 8 0;
#X connect 9 0 10 0;
#X connect 10 0 11 0;
#X connect 10 1 12 0;
#X connect 11 0 4 1;
#X connect 11 1 5 1;
#X connect 11 2 6 1;
#X connect 13 0 7 1;
#X connect 14 0 17 0;
#X connect 14 0 19 0;
#X connect 15 0 16 0;
#X connect 16 0 14 0;
#X connect 19 0 18 0;
#X connect 20 0 23 0;
#X connect 20 0 24 0;
#X connect 21 0 20 0;
#X connect 22 0 21 0;
#X connect 24 0 25 0;
#X connect 26 0 3 0;
#X connect 27 0 35 0;
#X connect 27 0 39 0;
#X connect 28 0 27 1;
#X connect 29 0 28 0;
#X connect 31 0 33 0;
#X connect 32 0 31 0;
#X connect 34 0 9 0;
#X connect 34 1 29 0;
#X connect 35 0 7 0;
#X connect 36 0 35 1;
#X connect 37 0 36 0;
#X connect 38 0 36 0;
#X connect 39 0 7 0;
#X connect 40 0 39 1;
#X connect 41 0 40 0;
#X connect 42 0 40 0;
#X connect 43 0 44 0;
#X connect 44 0 7 0;
#X connect 45 0 36 0;
#X connect 46 0 40 0;
#X connect 47 0 48 0;
#X connect 48 0 0 0;
#X scroll 1;
