#N canvas 676 0 665 665 10;
#X obj 142 148 mrpeach/slipdec;
#X obj 141 183 mrpeach/unpackOSC;
#X msg 98 25 close;
#X msg 220 28 open 4;
#X obj 143 109 comport 4 9600;
#X obj 142 215 mrpeach/routeOSC /waveformSelect;
#X obj 33 331 sig~;
#N canvas 0 0 1350 697 cosine 0;
#X obj 161 241 inlet~;
#X obj 167 361 outlet~;
#X obj 257 298 switch~;
#X obj 265 213 inlet;
#X obj 164 302 osc~;
#X msg 200 195 0;
#X msg 267 248 1;
#X obj 200 171 r stopAll;
#X connect 0 0 4 0;
#X connect 3 0 6 0;
#X connect 4 0 1 0;
#X connect 5 0 2 0;
#X connect 6 0 2 0;
#X connect 7 0 5 0;
#X restore 93 458 pd cosine;
#N canvas 0 0 450 300 sawtooth 0;
#X obj 151 179 phasor~;
#X obj 148 118 inlet~;
#X obj 154 238 outlet~;
#X obj 244 175 switch~;
#X obj 252 90 inlet;
#X msg 207 92 0;
#X msg 261 133 1;
#X obj 208 68 r stopAll;
#X connect 0 0 2 0;
#X connect 1 0 0 0;
#X connect 4 0 6 0;
#X connect 5 0 3 0;
#X connect 6 0 3 0;
#X connect 7 0 5 0;
#X restore 174 456 pd sawtooth;
#N canvas 442 179 450 300 square 0;
#X obj 158 199 expr~ $v1 > 0.5;
#X obj 198 166 phasor~;
#X obj 195 119 inlet~;
#X obj 201 239 outlet~;
#X obj 291 176 switch~;
#X obj 299 91 inlet;
#X msg 229 62 0;
#X msg 297 128 1;
#X obj 230 38 r stopAll;
#X connect 0 0 3 0;
#X connect 1 0 0 0;
#X connect 2 0 1 0;
#X connect 5 0 7 0;
#X connect 6 0 4 0;
#X connect 7 0 4 0;
#X connect 8 0 6 0;
#X restore 260 457 pd square;
#X obj 233 547 *~ 0.5;
#X obj 233 605 dac~;
#X obj 144 245 hradio 15 0 0 4 empty empty Waveform 69 7 0 10 -258049
-262144 -1 0;
#X obj 146 272 t f b;
#X obj 146 331 sel 0 1 2;
#X obj 173 303 s stopAll;
#X obj 427 486 vsl 15 128 0 1 0 0 empty empty empty 0 -9 0 10 -262144
-1 -1 0 1;
#X floatatom 425 63 0 0 0 0 - - -;
#X obj 425 15 r frequency;
#X msg 425 39 set \$1;
#X obj 438 87 s frequency;
#X obj 425 137 s pitch;
#X obj 425 113 ftom;
#X floatatom 561 65 0 0 0 0 - - -;
#X msg 561 41 set \$1;
#X obj 561 17 r pitch;
#X obj 570 89 s pitch;
#X obj 561 115 mtof;
#X obj 561 139 s frequency;
#X obj 31 292 r frequency;
#X connect 0 0 1 0;
#X connect 1 0 5 0;
#X connect 2 0 4 0;
#X connect 3 0 4 0;
#X connect 4 0 0 0;
#X connect 5 0 12 0;
#X connect 6 0 7 0;
#X connect 6 0 8 0;
#X connect 6 0 9 0;
#X connect 7 0 10 0;
#X connect 8 0 10 0;
#X connect 9 0 10 0;
#X connect 10 0 11 0;
#X connect 10 0 11 1;
#X connect 12 0 13 0;
#X connect 13 0 14 0;
#X connect 13 1 15 0;
#X connect 14 0 7 1;
#X connect 14 1 8 1;
#X connect 14 2 9 1;
#X connect 16 0 10 1;
#X connect 17 0 20 0;
#X connect 17 0 22 0;
#X connect 18 0 19 0;
#X connect 19 0 17 0;
#X connect 22 0 21 0;
#X connect 23 0 26 0;
#X connect 23 0 27 0;
#X connect 24 0 23 0;
#X connect 25 0 24 0;
#X connect 27 0 28 0;
#X connect 29 0 6 0;
